<svg width="101" height="54" viewBox="0 0 101 54" fill="none" xmlns="http://www.w3.org/2000/svg">
<path fill-rule="evenodd" clip-rule="evenodd" d="M24.0118 43.1123C22.8786 40.1195 21.7806 36.9929 20.6782 33.9656L19.9096 34.1728L16.3125 43.1641C15.7196 44.6583 15.4912 44.8311 14.358 44.9693V45.535H18.2186V44.9779C16.9406 44.8397 16.8571 44.6151 17.1514 43.6823C17.3622 42.987 17.5906 42.309 17.8321 41.6872H21.2931C21.6093 42.5206 21.9036 43.3368 22.0968 43.9112C22.3604 44.6583 22.2374 44.8311 21.1921 44.9865V45.535H25.9223V44.9779C24.8068 44.8483 24.5915 44.641 24.0118 43.1123ZM18.1088 40.8148C18.6008 39.5192 19.0707 38.1546 19.5978 36.8158H19.6329L21.0296 40.8148H18.1088ZM31.3158 34.799C32.7476 34.9761 32.7827 35.1834 32.4182 36.3105C31.9131 37.9127 30.9513 40.4175 30.0245 42.8143H29.9718C29.1329 40.6939 27.8065 37.2347 27.3366 35.9046C27.0731 35.1402 27.0906 34.9674 28.3468 34.8077V34.2376H23.4584V34.8077C24.5257 34.9113 24.8024 35.1229 25.3294 36.4444C26.1639 38.513 27.7187 42.5465 28.9089 45.7293H29.638C30.9864 42.1449 32.6773 38.025 33.2 36.7553C33.9027 35.1229 34.1794 34.9329 35.3345 34.8077V34.2376H31.2982L31.3158 34.799ZM35.8572 34.799C37.2012 34.9027 37.3593 35.0279 37.3593 36.5049V43.285C37.3593 44.762 37.2012 44.8829 35.8572 44.9865V45.535H40.8685V44.9779C39.5246 44.8743 39.384 44.7533 39.384 43.2764V36.4962C39.384 35.0193 39.5246 34.894 40.8685 34.7904V34.2376H35.8572V34.799ZM51.1592 43.1123C50.026 40.1195 48.9236 36.9929 47.8256 33.9656L47.0526 34.1728L43.4555 43.1641C42.8669 44.6583 42.6385 44.8311 41.501 44.9693V45.535H45.3616V44.9779C44.0879 44.8397 44.0001 44.6151 44.2944 43.6823C44.5052 42.987 44.7336 42.309 44.9795 41.6872H48.4536C48.7655 42.5206 49.0641 43.3368 49.253 43.9112C49.5165 44.6583 49.3936 44.8311 48.3482 44.9865V45.535H53.0785V44.9779C51.9629 44.857 51.7345 44.6497 51.1592 43.1209V43.1123ZM45.2562 40.8234C45.7437 39.5279 46.2181 38.1632 46.7407 36.8244H46.7671L48.1638 40.8234H45.2562ZM69.4345 33.9915C65.5783 33.9915 63.4086 36.9108 63.4086 39.9554C63.4086 43.2937 65.8726 45.7984 69.2413 45.7984C72.4914 45.7984 75.1794 43.5182 75.1794 39.7524C75.2062 38.9979 75.0769 38.2458 74.7993 37.5418C74.5217 36.8379 74.1015 36.1967 73.5643 35.6572C73.0271 35.1177 72.3841 34.6911 71.6742 34.4033C70.9643 34.1155 70.2024 33.9724 69.4345 33.9828V33.9915ZM69.5575 45.1031C67.2341 45.1031 65.7496 42.6329 65.7496 39.571C65.7496 36.5092 67.2693 34.6867 69.0832 34.6867C71.2002 34.6867 72.7857 36.7035 72.7857 40.2491C72.7857 43.4837 71.3056 45.1031 69.54 45.1031H69.5575ZM86.5988 42.9438H85.9312C85.9312 43.6046 85.672 44.5633 85.3338 44.5633C84.7804 44.5633 84.574 43.6175 84.4291 42.5465C84.2973 41.6008 83.5946 40.0547 82.7425 40.0547C83.7 40.0547 85.2065 38.6814 85.2065 37.1699C85.1939 36.6827 85.056 36.2065 84.8056 35.7859C84.5552 35.3653 84.2005 35.0139 83.7747 34.7645C83.0412 34.3758 82.2199 34.2333 80.7705 34.2333H76.1061V34.7861C77.3974 34.907 77.5555 35.0495 77.5555 36.4746V43.2721C77.5555 44.7145 77.3842 44.8699 76.0358 44.9736V45.535H81.0516V44.9779C79.7032 44.8743 79.3255 44.7188 79.3255 43.2764V40.2059H79.9492C80.6475 40.2059 81.684 40.3527 81.9827 40.8536C82.4878 41.7433 82.5756 42.2745 82.7777 44.0235C82.9314 45.3536 83.722 45.6732 84.8727 45.6732C86.6295 45.6732 86.6559 43.2677 86.6295 42.9568L86.5988 42.9438ZM82.3472 39.0701C81.908 39.4199 80.9418 39.4285 80.1512 39.4285H79.3343V35.7275C79.3343 35.3259 79.3694 35.1359 79.4924 35.0322C79.6154 34.9286 80.0985 34.9847 80.5685 34.9847C81.6709 34.9847 83.3794 35.0927 83.3794 36.9669C83.3792 37.3717 83.2859 37.7712 83.1064 38.1354C82.9269 38.4996 82.6658 38.8192 82.3428 39.0701H82.3472ZM52.916 34.0908C52.8765 34.9934 52.7754 37.3556 52.7052 38.5346H53.2981C53.5089 37.7184 54.3171 34.9113 55.7664 34.9113H56.5307V43.2721C56.5307 44.7145 56.3769 44.8526 54.8573 44.9563V45.535H60.3078V44.9779C58.7882 44.8743 58.6301 44.736 58.6301 43.2936V34.9243H59.3987C60.8481 34.9243 61.6562 37.7313 61.867 38.5476H62.46C62.3897 37.3686 62.2843 35.0063 62.2491 34.1038L52.916 34.0908Z" fill="#1D1D1B"/>
<path fill-rule="evenodd" clip-rule="evenodd" d="M101 0L76.2946 6.66787L77.7089 4.30992C73.8043 7.08676 56.8641 9.31085 56.7411 9.3238H56.5523L54.3299 10.7964L56.9651 18.03L56.6708 14.2772L56.5391 13.2667L57.5976 12.1222C59.0777 11.9668 69.7153 8.33916 75.3152 6.50809L71.0724 11.5133L65.7668 11.7206L64.7083 12.1525L70.3785 12.9298L66.0918 15.8923L60.997 15.7887L60.2548 16.2205L64.3218 17.2354L58.6517 19.6236H56.236C54.5495 15.102 52.8981 10.4941 51.2423 6.00282L49.7006 6.43468L44.3511 19.6236H42.3307L36.665 17.2225L40.732 16.2076L39.9898 15.7757L34.895 15.8794L30.6039 12.9039L36.2741 12.1265L35.2156 11.6947L29.91 11.4874L25.6848 6.50809C31.2847 8.35643 41.9355 11.984 43.398 12.1222L44.4609 13.2667L44.3247 14.2772L44.0349 18.03L46.6701 10.7964L44.4477 9.3238H44.2589C44.1359 9.3238 27.1913 7.08676 23.2911 4.30992L24.7054 6.66787L0 0L4.22078 4.82383C3.66738 4.68564 3.11397 4.54745 2.56497 4.39198L9.67572 14.1131L10.844 13.9663L15.7104 19.4508L17.1774 18.9283L22.0526 23.3159L23.6381 22.625L29.8836 26.1878L30.6478 25.3241L36.2258 28.075L36.4586 27.7209L38.4833 28.8221H38.5624V28.8912H46.3275V27.79C43.7757 27.5136 43.6001 27.0688 44.193 25.1988C44.6058 23.8385 45.0714 22.5084 45.5413 21.2862L48.3523 21.256H52.5291C53.1572 22.91 53.7545 24.5251 54.1366 25.6609C54.6637 27.1379 54.4177 27.4834 52.3183 27.7943V28.8955H61.8008V28.8394H61.9677L64.4668 27.6259L64.7698 28.0837L70.3741 25.3284L71.1427 26.1921L77.3619 22.6466L78.9474 23.3375L83.8182 18.9499L85.2896 19.4724L90.156 13.9878L91.3199 14.1347L98.435 4.41359C97.886 4.56042 97.3326 4.69862 96.7792 4.84545L101 0ZM3.88698 2.18952L25.1797 7.48841L25.5706 8.14481C19.2301 7.63507 12.9302 6.71904 6.71108 5.40253L3.88698 2.18952ZM42.4976 24.2142C41.549 26.5722 41.0614 27.2718 39.757 27.5957L39.0235 27.574L37.0339 26.8744L39.7658 22.7286L38.7556 23.0266L35.8349 25.9978L31.1661 24.7022L35.0619 20.2498L30.0769 24.0156L24.9909 22.029L32.5101 18.7599L31.3023 18.6605L22.237 20.9364L18.2534 18.5396L28.4826 14.8947L16.4966 16.877L12.983 13.6942L23.7655 12.3382L21.8066 12.174L11.1427 12.0272L5.01574 5.89053C15.7236 8.56805 23.9016 10.1443 27.121 10.7273L28.6012 13.1975L29.3698 13.0896L34.4689 17.7752L35.668 17.4729L42.5196 21.3337H43.6659L42.4976 24.2142ZM46.0991 19.5718C47.0786 16.9806 48.0229 14.3074 49.0726 11.6601H49.1428L51.9406 19.5718H46.0991ZM75.8027 7.47976L97.091 2.18087L94.267 5.39389C88.0479 6.71099 81.748 7.62705 75.4074 8.13619L75.8027 7.47976ZM89.8354 12.0272L79.1758 12.174L77.2126 12.3382L87.9995 13.6942L84.4858 16.877L72.4999 14.8947L82.729 18.5396L78.7454 20.9364L69.6802 18.6605L68.4679 18.7599L75.9696 22.0204L70.888 24.0069L65.9205 20.2455L69.8119 24.6979L65.1475 25.9935L62.2268 23.0223L61.2166 22.7243L63.9441 26.8615L61.9413 27.5698L60.6237 27.6086C59.3061 27.2847 58.8405 26.5376 57.9094 24.1106C57.5522 23.1806 57.1994 22.2478 56.8509 21.3121H58.4452L65.3056 17.4643L66.5091 17.7666L71.6127 13.0809L72.3813 13.1889L73.8614 10.7187C77.0676 10.1357 85.2588 8.5594 95.9667 5.88189L89.8354 12.0272Z" fill="#1D1D1B"/>
<path d="M17.024 49.629L17.0547 51.0152H16.9274C16.8884 50.6856 16.7329 50.38 16.4881 50.1515C16.2878 49.9536 16.0167 49.8405 15.7327 49.8363C15.5499 49.8266 15.3705 49.8869 15.232 50.0047C15.1758 50.0523 15.1306 50.1113 15.0995 50.1776C15.0684 50.2439 15.0522 50.316 15.0519 50.389C15.0514 50.4748 15.0725 50.5594 15.1134 50.6352C15.1916 50.7468 15.2898 50.8434 15.4033 50.9202C15.6196 51.0506 15.8424 51.1702 16.0709 51.2787C16.4457 51.4352 16.7836 51.666 17.0635 51.9567C17.2286 52.1651 17.3169 52.4224 17.3139 52.6865C17.315 52.8563 17.2792 53.0243 17.2087 53.1792C17.1382 53.3342 17.0348 53.4725 16.9054 53.5848C16.6234 53.8389 16.2511 53.9738 15.8689 53.9605C15.7433 53.9613 15.6181 53.9483 15.4955 53.9216C15.3458 53.8812 15.199 53.8307 15.0563 53.7705C14.9809 53.7341 14.8987 53.7135 14.8148 53.71C14.7526 53.7119 14.6926 53.733 14.6435 53.7705C14.5798 53.8191 14.5298 53.8831 14.4985 53.9562H14.3844V52.3842H14.4985C14.557 52.7678 14.7404 53.1224 15.0212 53.3948C15.2431 53.6128 15.5421 53.7381 15.8557 53.7446C16.0577 53.7559 16.2562 53.6892 16.4091 53.5589C16.4719 53.5051 16.5225 53.4387 16.5573 53.3643C16.5921 53.2898 16.6105 53.209 16.6111 53.127C16.6103 53.0274 16.5847 52.9296 16.5365 52.842C16.4734 52.7401 16.3915 52.6508 16.2949 52.5786C16.1164 52.4539 15.9268 52.3455 15.7283 52.2547C15.4396 52.1228 15.1645 51.9637 14.907 51.7796C14.7502 51.6624 14.6188 51.5156 14.5205 51.3478C14.4317 51.1845 14.3864 51.0017 14.3887 50.8166C14.384 50.6555 14.414 50.4952 14.4768 50.3463C14.5396 50.1974 14.6339 50.0633 14.7533 49.9529C14.8762 49.8367 15.0215 49.746 15.1807 49.6859C15.3399 49.6258 15.5096 49.5977 15.68 49.6031C15.8133 49.6013 15.9463 49.6173 16.0753 49.6506C16.197 49.6845 16.3148 49.7308 16.4267 49.7888C16.518 49.8388 16.6176 49.8725 16.7209 49.8881C16.7447 49.8892 16.7685 49.8851 16.7905 49.8761C16.8125 49.8672 16.8322 49.8536 16.8483 49.8363C16.8933 49.7656 16.9218 49.6859 16.9318 49.6031L17.024 49.629Z" fill="#1D1D1B"/>
<path d="M23.8317 49.724V49.8536C23.7607 49.8553 23.6918 49.8778 23.634 49.9183C23.5733 49.9618 23.5249 50.0197 23.4935 50.0868C23.4935 50.1127 23.4144 50.2681 23.3002 50.5618L21.9826 53.9951H21.864L20.8538 51.296L19.7119 53.9778H19.5977L18.2186 50.5834C18.1413 50.3672 18.0428 50.1589 17.9243 49.9615C17.8903 49.922 17.8479 49.8904 17.8001 49.8687C17.7523 49.8471 17.7003 49.836 17.6476 49.8363V49.724H19.4616V49.8536C19.3591 49.8463 19.2568 49.8688 19.1673 49.9183C19.1444 49.9364 19.1262 49.9595 19.114 49.9857C19.1018 50.012 19.096 50.0407 19.097 50.0695C19.1222 50.2398 19.1726 50.4057 19.2463 50.5618L20.0677 52.5829L20.7265 51.0023L20.5508 50.5704C20.4912 50.4042 20.4193 50.2426 20.3356 50.0868C20.292 50.0147 20.2299 49.9551 20.1555 49.914C20.0629 49.8742 19.9621 49.8564 19.8612 49.8622V49.7499H21.8904V49.8536C21.7867 49.8491 21.6829 49.8608 21.5829 49.8881C21.543 49.9008 21.5078 49.9248 21.4819 49.9572C21.456 49.9907 21.4421 50.0317 21.4424 50.0738C21.4741 50.2221 21.5212 50.3668 21.5829 50.5057L22.3471 52.4792L23.0279 50.6957C23.0982 50.51 23.1421 50.3847 23.1597 50.3156C23.1765 50.2551 23.1853 50.1927 23.186 50.13C23.1878 50.0924 23.1807 50.055 23.1655 50.0206C23.1503 49.9862 23.1273 49.9556 23.0982 49.9313C22.9992 49.8724 22.8841 49.8453 22.7688 49.8536V49.7413L23.8317 49.724Z" fill="#1D1D1B"/>
<path d="M26.2034 53.7705V53.8828H24.0073V53.7705H24.1435C24.2457 53.7752 24.3474 53.7528 24.4378 53.7057C24.4951 53.6726 24.5387 53.6206 24.5607 53.5589C24.5924 53.4318 24.6042 53.3008 24.5959 53.1702V50.4323C24.6038 50.2988 24.592 50.165 24.5607 50.0349C24.5324 49.9751 24.4845 49.9265 24.4246 49.8967C24.3377 49.8531 24.2409 49.8323 24.1435 49.8363H24.0073V49.724H26.2034V49.8536H26.0628C25.962 49.8488 25.8618 49.8712 25.773 49.9183C25.7134 49.95 25.668 50.0024 25.6456 50.0652C25.6116 50.1904 25.5997 50.3204 25.6104 50.4495V53.1875C25.6026 53.3223 25.6145 53.4576 25.6456 53.5891C25.6756 53.6492 25.725 53.6978 25.7861 53.7273C25.8714 53.7709 25.9668 53.7918 26.0628 53.7878L26.2034 53.7705Z" fill="#1D1D1B"/>
<path d="M29.3174 49.629L29.3481 51.0153H29.2252C29.184 50.6863 29.0289 50.3813 28.7859 50.1515C28.5834 49.9541 28.3112 49.8412 28.0261 49.8363C27.8446 49.8259 27.6662 49.8864 27.5298 50.0047C27.4723 50.0516 27.426 50.1103 27.3941 50.1767C27.3622 50.2431 27.3456 50.3156 27.3454 50.3891C27.3441 50.4755 27.3669 50.5606 27.4112 50.6352C27.4863 50.7478 27.5833 50.8447 27.6967 50.9202C27.913 51.0506 28.1358 51.1703 28.3643 51.2787C28.7391 51.4352 29.077 51.666 29.3569 51.9567C29.5467 52.1967 29.6361 52.499 29.6067 52.8016C29.5773 53.1043 29.4314 53.3844 29.1988 53.5848C28.917 53.8393 28.5446 53.9743 28.1623 53.9605C28.0368 53.9611 27.9116 53.948 27.789 53.9216C27.6392 53.8812 27.4925 53.8307 27.3497 53.7705C27.2745 53.7336 27.1922 53.713 27.1082 53.71C27.046 53.7119 26.9861 53.7331 26.9369 53.7705C26.8732 53.8191 26.8232 53.8831 26.7919 53.9562H26.6778V52.3842H26.7919C26.8522 52.7672 27.0353 53.1213 27.3146 53.3948C27.537 53.6121 27.8357 53.7373 28.1491 53.7446C28.3511 53.7559 28.5496 53.6893 28.7025 53.5589C28.7657 53.5051 28.8168 53.4389 28.8523 53.3645C28.8879 53.2901 28.9072 53.2092 28.9089 53.127C28.9087 53.0268 28.8814 52.9284 28.8299 52.842C28.7682 52.7391 28.686 52.6496 28.5883 52.5786C28.4098 52.4539 28.2202 52.3455 28.0217 52.2547C27.733 52.1228 27.4579 51.9638 27.2004 51.7796C27.0438 51.6635 26.9136 51.5164 26.8183 51.3478C26.7261 51.1856 26.6791 51.0024 26.6821 50.8166C26.6773 50.6551 26.7078 50.4944 26.7714 50.3454C26.8351 50.1964 26.9304 50.0626 27.0511 49.9529C27.1732 49.8369 27.3178 49.7462 27.4762 49.6861C27.6346 49.626 27.8037 49.5978 27.9734 49.6031C28.1068 49.6013 28.2397 49.6173 28.3687 49.6506C28.4916 49.6851 28.6108 49.7314 28.7245 49.7888C28.8144 49.8384 28.9125 49.872 29.0143 49.8881C29.0381 49.8892 29.0619 49.8851 29.0839 49.8761C29.1059 49.8672 29.1256 49.8536 29.1417 49.8363C29.1886 49.7661 29.2187 49.6864 29.2296 49.6031L29.3174 49.629Z" fill="#1D1D1B"/>
<path d="M32.831 49.629L32.8662 51.0152H32.7388C32.6977 50.6863 32.5426 50.3813 32.2996 50.1515C32.0976 49.9534 31.8251 49.8403 31.5397 49.8363C31.3583 49.8264 31.1801 49.8868 31.0435 50.0047C30.9859 50.0515 30.9396 50.1103 30.9077 50.1767C30.8758 50.2431 30.8592 50.3156 30.859 50.389C30.8578 50.4755 30.8805 50.5606 30.9249 50.6352C30.9999 50.7478 31.097 50.8447 31.2103 50.9202C31.4278 51.0513 31.6521 51.1709 31.8823 51.2787C32.2552 51.4362 32.5915 51.6669 32.8705 51.9567C33.0388 52.1636 33.1289 52.4216 33.1253 52.6865C33.1264 52.8563 33.0906 53.0243 33.0201 53.1792C32.9497 53.3342 32.8462 53.4725 32.7168 53.5848C32.4335 53.8395 32.0596 53.9745 31.6759 53.9605C31.5504 53.9611 31.4252 53.948 31.3026 53.9216C31.1528 53.8813 31.0061 53.8308 30.8634 53.7705C30.7865 53.734 30.7028 53.7134 30.6174 53.71C30.5565 53.7113 30.4977 53.7325 30.4505 53.7705C30.3843 53.8167 30.3338 53.8814 30.3056 53.9562H30.1914V52.3842H30.3056C30.3621 52.7684 30.5458 53.1236 30.8282 53.3948C31.0501 53.6128 31.3491 53.7381 31.6627 53.7446C31.8633 53.7552 32.0602 53.6886 32.2117 53.5589C32.275 53.5051 32.326 53.4389 32.3616 53.3645C32.3971 53.2901 32.4164 53.2092 32.4182 53.127C32.4179 53.0268 32.3907 52.9284 32.3391 52.842C32.2778 52.7402 32.1973 52.6508 32.1019 52.5786C31.9211 52.4552 31.7301 52.3468 31.531 52.2547C31.2428 52.1218 30.9678 51.9628 30.7097 51.7796C30.553 51.6635 30.4229 51.5164 30.3275 51.3478C30.2374 51.1848 30.1906 51.0021 30.1914 50.8166C30.1866 50.6551 30.217 50.4944 30.2807 50.3454C30.3443 50.1964 30.4397 50.0626 30.5603 49.9529C30.6833 49.8367 30.8286 49.746 30.9877 49.6859C31.1469 49.6258 31.3167 49.5977 31.487 49.6031C31.6204 49.6013 31.7534 49.6173 31.8823 49.6506C32.0038 49.6852 32.1215 49.7315 32.2337 49.7888C32.325 49.8388 32.4246 49.8725 32.528 49.8881C32.5511 49.8891 32.5742 49.885 32.5955 49.876C32.6168 49.8671 32.6357 49.8535 32.6509 49.8363C32.6979 49.7661 32.7279 49.6864 32.7388 49.6031L32.831 49.629Z" fill="#1D1D1B"/>
<path d="M37.9829 52.4663L39.1161 49.724H40.8202V49.8536H40.6841C40.5818 49.8488 40.4802 49.8712 40.3898 49.9183C40.3337 49.9509 40.2904 50.0011 40.2668 50.0608C40.2357 50.1865 40.2238 50.3161 40.2317 50.4452V53.1875C40.2239 53.3223 40.2357 53.4576 40.2668 53.5891C40.2964 53.648 40.344 53.6963 40.403 53.7273C40.49 53.7704 40.5867 53.7912 40.6841 53.7878H40.8202V53.9001H38.6242V53.7878H38.7603C38.8625 53.7925 38.9642 53.7701 39.0546 53.723C39.1108 53.6886 39.154 53.637 39.1776 53.5762C39.2092 53.4491 39.221 53.318 39.2127 53.1875V50.104L37.6096 53.9001H37.5437L35.9143 50.1343V53.0623C35.9063 53.1888 35.9063 53.3157 35.9143 53.4423C35.941 53.5424 36.0033 53.6297 36.09 53.6884C36.2214 53.7678 36.3757 53.8026 36.5292 53.7878V53.9001H35.0842V53.7878H35.1281C35.2164 53.7892 35.3043 53.7746 35.3872 53.7446C35.4576 53.7174 35.5196 53.6727 35.5673 53.615C35.6165 53.5484 35.6496 53.4716 35.6639 53.3905C35.6639 53.3905 35.6639 53.2652 35.6639 53.0795V50.4452C35.6725 50.3134 35.6622 50.1811 35.6332 50.0522C35.6032 49.9921 35.5537 49.9435 35.4926 49.914C35.4058 49.8704 35.309 49.8496 35.2115 49.8536H35.0798V49.7413H36.7883L37.9829 52.4663Z" fill="#1D1D1B"/>
<path d="M43.552 52.6995H42.0719L41.8962 53.1055C41.847 53.21 41.8187 53.3229 41.8128 53.438C41.8091 53.4898 41.8203 53.5416 41.8452 53.5874C41.87 53.6332 41.9075 53.6713 41.9533 53.6971C42.0846 53.7431 42.2225 53.7679 42.3618 53.7705V53.8828H40.9739V53.7705C41.1148 53.7518 41.245 53.6863 41.3428 53.5848C41.4913 53.3939 41.6111 53.183 41.6986 52.9586L43.1963 49.6376H43.2534L44.7643 53.0493C44.8465 53.2708 44.9668 53.4768 45.12 53.6582C45.2027 53.7267 45.3063 53.7662 45.4143 53.7705V53.8828H43.3895V53.7705H43.473C43.5916 53.7813 43.7109 53.7573 43.8156 53.7014C43.8388 53.6867 43.8577 53.6661 43.87 53.6418C43.8824 53.6175 43.8879 53.5903 43.8859 53.5632C43.8901 53.5245 43.8901 53.4854 43.8859 53.4466C43.8859 53.4466 43.8507 53.3516 43.7936 53.2177L43.552 52.6995ZM43.4466 52.4706L42.8142 51.0368L42.1729 52.4706H43.4466Z" fill="#1D1D1B"/>
<path d="M45.568 53.8828V53.7705H45.7086C45.8055 53.7745 45.902 53.7552 45.9897 53.7144C46.0506 53.6768 46.0994 53.6228 46.1302 53.5589C46.1603 53.4316 46.1707 53.3006 46.161 53.1702V50.4323C46.1689 50.2988 46.1571 50.165 46.1258 50.0349C46.0962 49.976 46.0486 49.9277 45.9897 49.8967C45.9028 49.8531 45.806 49.8323 45.7086 49.8363H45.568V49.724H47.4434C47.8561 49.7072 48.2677 49.7763 48.6513 49.927C49.0094 50.0802 49.307 50.344 49.4989 50.6784C49.6578 50.9751 49.7527 51.3008 49.7776 51.6352C49.8026 51.9696 49.757 52.3055 49.6439 52.6217C49.5625 52.8478 49.4372 53.056 49.2749 53.235C49.128 53.3937 48.9522 53.524 48.7567 53.6193C48.5283 53.7276 48.286 53.8046 48.0364 53.8482C47.84 53.875 47.6417 53.8866 47.4434 53.8828H45.568ZM47.1667 49.9572V53.2048C47.1544 53.3095 47.1544 53.4153 47.1667 53.52C47.1833 53.5586 47.2128 53.5906 47.2502 53.6107C47.3256 53.6457 47.4085 53.662 47.4917 53.6582C47.6418 53.667 47.7918 53.6397 47.9288 53.5788C48.0657 53.5178 48.1856 53.425 48.2779 53.3084C48.5613 52.8718 48.6923 52.3564 48.6513 51.8401C48.6724 51.3944 48.5851 50.9503 48.3965 50.5445C48.2899 50.3216 48.1084 50.1416 47.8827 50.0349C47.6508 49.9664 47.4082 49.9401 47.1667 49.9572Z" fill="#1D1D1B"/>
<path d="M51.774 49.9615V51.6544H51.8575C51.9666 51.6636 52.0764 51.646 52.1769 51.603C52.2773 51.56 52.3653 51.4931 52.4328 51.4082C52.5709 51.1864 52.6495 50.9339 52.6612 50.6741H52.7798V52.8334H52.6612C52.6451 52.6317 52.5931 52.4343 52.5075 52.2504C52.4504 52.1232 52.3534 52.0172 52.2308 51.9481C52.0917 51.8916 51.9419 51.8651 51.7916 51.8703V53.0407C51.7832 53.1851 51.7921 53.3301 51.8179 53.4725C51.8402 53.5257 51.8785 53.571 51.9277 53.6021C52.009 53.6382 52.0979 53.6545 52.1869 53.6496H52.4372C52.7729 53.6668 53.1045 53.5708 53.3771 53.3775C53.6337 53.1662 53.8127 52.878 53.8866 52.557H54.0008L53.8119 53.8785H50.1929V53.7662H50.3334C50.4356 53.7709 50.5373 53.7485 50.6277 53.7014C50.6839 53.667 50.7271 53.6154 50.7507 53.5546C50.7823 53.4275 50.7941 53.2964 50.7858 53.1659V50.4279C50.7946 50.3129 50.7946 50.1975 50.7858 50.0825C50.768 50.0165 50.7277 49.9586 50.6716 49.9183C50.5768 49.8569 50.4645 49.8266 50.351 49.832H50.2104V49.7197H53.7241V50.9505H53.6055C53.5768 50.7177 53.4909 50.4954 53.3552 50.3027C53.2411 50.1656 53.0883 50.0649 52.916 50.0133C52.7029 49.9655 52.4842 49.9466 52.2659 49.9572L51.774 49.9615Z" fill="#1D1D1B"/>
<path d="M61.9944 49.724V49.8536C61.9236 49.8565 61.8551 49.879 61.7967 49.9183C61.737 49.9628 61.6888 50.0205 61.6562 50.0868C61.6562 50.1127 61.5815 50.2681 61.4629 50.5618L60.1453 53.9951H60.0267L58.9902 51.3132L57.8482 53.9951H57.7472L56.3725 50.6007C56.2932 50.3852 56.1948 50.1771 56.0782 49.9788C56.043 49.9396 55.9997 49.9082 55.9513 49.8867C55.9029 49.8651 55.8503 49.8538 55.7971 49.8536V49.7413H57.6111V49.8536C57.5101 49.8466 57.4092 49.8691 57.3212 49.9183C57.2978 49.9362 57.2789 49.9591 57.2659 49.9853C57.253 50.0116 57.2463 50.0403 57.2465 50.0695C57.274 50.2393 57.3242 50.4049 57.3959 50.5618L58.2172 52.5829L58.876 51.0023L58.7047 50.5704C58.6423 50.4047 58.5689 50.2431 58.4851 50.0868C58.4435 50.0131 58.3809 49.9531 58.305 49.914C58.2124 49.8742 58.1116 49.8564 58.0107 49.8622V49.7499H60.0399V49.8536C59.9362 49.8491 59.8324 49.8608 59.7324 49.8881C59.6925 49.9008 59.6574 49.9248 59.6314 49.9572C59.6086 49.992 59.5964 50.0324 59.5963 50.0738C59.6254 50.2222 59.6711 50.3671 59.7324 50.5057L60.4967 52.4792L61.1774 50.6957C61.2292 50.5718 61.2732 50.4449 61.3092 50.3156C61.326 50.2551 61.3348 50.1927 61.3356 50.13C61.3373 50.0924 61.3303 50.055 61.315 50.0206C61.2998 49.9862 61.2768 49.9556 61.2477 49.9313C61.1488 49.8724 61.0336 49.8453 60.9183 49.8536V49.7413L61.9944 49.724Z" fill="#1D1D1B"/>
<path d="M63.9796 52.6995H62.5038L62.3281 53.1055C62.2758 53.2091 62.2459 53.3223 62.2403 53.438C62.2376 53.4896 62.2493 53.5411 62.274 53.5867C62.2988 53.6324 62.3357 53.6705 62.3808 53.6971C62.5136 53.7431 62.653 53.7679 62.7937 53.7705V53.8828H61.4014V53.7705C61.5423 53.7518 61.6725 53.6863 61.7704 53.5848C61.919 53.3933 62.0402 53.1826 62.1305 52.9586L63.6238 49.6376H63.6853L65.1918 53.0493C65.274 53.2708 65.3943 53.4768 65.5475 53.6582C65.6319 53.7267 65.7368 53.7662 65.8462 53.7705V53.8828H63.8214V53.7705H63.8961C64.0147 53.7813 64.134 53.7573 64.2387 53.7014C64.2605 53.6856 64.278 53.6647 64.2895 53.6405C64.301 53.6164 64.3062 53.5898 64.3046 53.5632C64.311 53.5246 64.311 53.4852 64.3046 53.4466C64.3046 53.4466 64.2694 53.3516 64.2123 53.2177L63.9796 52.6995ZM63.8742 52.4706L63.2505 51.0368L62.6092 52.4706H63.8742Z" fill="#1D1D1B"/>
<path d="M69.4345 49.724V50.8468H69.3247C69.2818 50.6509 69.2077 50.4629 69.1051 50.2897C69.0205 50.1714 68.9053 50.0775 68.7713 50.0177C68.6408 49.9705 68.5015 49.9514 68.3629 49.9615H68.051V53.1702C68.0432 53.305 68.055 53.4403 68.0862 53.5718C68.1162 53.6319 68.1656 53.6805 68.2267 53.71C68.3134 53.754 68.4103 53.7749 68.5078 53.7705H68.6483V53.8828H66.4523V53.7705H66.5885C66.6907 53.7752 66.7923 53.7528 66.8827 53.7057C66.9402 53.6715 66.9848 53.62 67.0101 53.5589C67.0417 53.4318 67.0536 53.3008 67.0452 53.1702V49.9615H66.7422C66.5219 49.9423 66.3023 50.0055 66.1273 50.1386C65.9364 50.3303 65.8172 50.58 65.7891 50.8468H65.6705V49.724H69.4345Z" fill="#1D1D1B"/>
<path d="M73.8793 49.629V51.0714H73.7607C73.693 50.7369 73.5155 50.4335 73.2556 50.2077C73.0197 50.0155 72.7231 49.9101 72.4167 49.9097C72.1592 49.9077 71.9074 49.9847 71.6964 50.1299C71.4813 50.2748 71.3147 50.4792 71.2177 50.7173C71.0839 51.0452 71.0182 51.3961 71.0245 51.7494C71.0188 52.0927 71.0662 52.4349 71.165 52.7643C71.2353 53.0349 71.3887 53.2776 71.6042 53.4595C71.8315 53.6232 72.1089 53.7055 72.3904 53.6928C72.6409 53.6955 72.8883 53.6377 73.1107 53.5243C73.377 53.369 73.6122 53.167 73.8046 52.9284V53.3084C73.5991 53.5312 73.3495 53.7104 73.0712 53.8353C72.7933 53.95 72.494 54.0059 72.1928 53.9994C71.7796 54.0086 71.3705 53.9166 71.0025 53.7316C70.6629 53.5616 70.3829 53.2953 70.1987 52.9672C70.0128 52.6416 69.9159 52.274 69.9176 51.9005C69.9159 51.504 70.0237 51.1144 70.2295 50.7734C70.4286 50.4252 70.722 50.1382 71.0772 49.9442C71.4202 49.7494 71.8098 49.648 72.2059 49.6506C72.5259 49.6541 72.8421 49.7186 73.137 49.8406C73.2516 49.8922 73.3728 49.9286 73.4972 49.9485C73.529 49.9492 73.5607 49.9433 73.5901 49.9315C73.6196 49.9196 73.6463 49.9019 73.6685 49.8795C73.7244 49.8151 73.7582 49.735 73.7651 49.6506L73.8793 49.629Z" fill="#1D1D1B"/>
<path d="M75.9567 51.8833V53.1789C75.9465 53.3137 75.9583 53.4493 75.9919 53.5805C76.0202 53.6403 76.0681 53.689 76.128 53.7187C76.2149 53.7623 76.3117 53.7831 76.4091 53.7791H76.5453V53.8914H74.3492V53.7791H74.4898C74.5906 53.784 74.6908 53.7615 74.7796 53.7144C74.8382 53.6815 74.8832 53.6295 74.907 53.5675C74.9361 53.4401 74.9465 53.3092 74.9378 53.1789V50.4409C74.9463 50.3077 74.9359 50.174 74.907 50.0436C74.8755 49.9845 74.8265 49.9363 74.7665 49.9054C74.6812 49.8618 74.5858 49.8409 74.4898 49.8449H74.3492V49.7326H76.5453V49.8536H76.4091C76.3069 49.8488 76.2053 49.8712 76.1148 49.9183C76.0563 49.9512 76.0113 50.0031 75.9875 50.0652C75.9582 50.1911 75.9479 50.3206 75.9567 50.4495V51.6285H77.4325V50.4495C77.4404 50.3161 77.4286 50.1823 77.3973 50.0522C77.369 49.9924 77.321 49.9437 77.2612 49.914C77.1741 49.871 77.0775 49.8502 76.9801 49.8536H76.8439V49.7413H79.04V49.8536H78.9038C78.8029 49.8483 78.7026 49.8707 78.6139 49.9183C78.5544 49.95 78.509 50.0024 78.4866 50.0652C78.4549 50.1908 78.4431 50.3204 78.4514 50.4495V53.1875C78.4436 53.3223 78.4554 53.4576 78.4866 53.5891C78.5149 53.6489 78.5628 53.6976 78.6227 53.7273C78.7098 53.7704 78.8064 53.7912 78.9038 53.7878H79.04V53.9001H76.8439V53.7878H76.9801C77.0809 53.793 77.1813 53.7706 77.27 53.723C77.3285 53.6901 77.3735 53.6382 77.3973 53.5762C77.4289 53.4491 77.4408 53.318 77.4325 53.1875V51.8919L75.9567 51.8833Z" fill="#1D1D1B"/>
<path d="M80.8627 49.9615V51.6544H80.9462C81.056 51.664 81.1665 51.6465 81.2677 51.6035C81.369 51.5605 81.4577 51.4934 81.5259 51.4082C81.6621 51.1856 81.7405 50.9335 81.7543 50.6741H81.8685V52.8334H81.7543C81.7368 52.6314 81.6833 52.4341 81.5962 52.2504C81.5391 52.1232 81.4421 52.0172 81.3195 51.9481C81.1806 51.8908 81.0307 51.8643 80.8803 51.8703V53.0407C80.8721 53.1853 80.8824 53.3304 80.911 53.4725C80.9319 53.5265 80.9706 53.5721 81.0208 53.6021C81.1019 53.6387 81.1909 53.655 81.2799 53.6496H81.5303C81.8659 53.6661 82.1972 53.5702 82.4702 53.3775C82.7254 53.1658 82.9029 52.8775 82.9753 52.557H83.0895L82.905 53.8785H79.2684V53.7662H79.4089C79.5098 53.771 79.61 53.7486 79.6988 53.7014C79.7573 53.6685 79.8024 53.6166 79.8262 53.5546C79.8553 53.4271 79.8656 53.2962 79.8569 53.1659V50.4279C79.8647 50.3129 79.8647 50.1975 79.8569 50.0825C79.8376 50.0172 79.7976 49.9597 79.7427 49.9183C79.6479 49.8569 79.5356 49.8266 79.4221 49.832H79.2684V49.7197H82.782V50.9505H82.6635C82.6306 50.7188 82.5451 50.4973 82.4131 50.3027C82.2927 50.1626 82.1319 50.0617 81.9519 50.0133C81.7404 49.9652 81.5231 49.9463 81.3063 49.9572L80.8627 49.9615Z" fill="#1D1D1B"/>
<path d="M86.3264 49.629L86.3615 51.0152H86.2342C86.193 50.6863 86.0379 50.3813 85.795 50.1515C85.5925 49.9541 85.3203 49.8412 85.0352 49.8363C84.8537 49.8264 84.6755 49.8868 84.5389 50.0047C84.4813 50.0515 84.435 50.1103 84.4031 50.1767C84.3712 50.2431 84.3546 50.3156 84.3544 50.389C84.3532 50.4755 84.3759 50.5606 84.4203 50.6352C84.4953 50.7478 84.5924 50.8447 84.7058 50.9202C84.9232 51.0513 85.1475 51.1709 85.3777 51.2787C85.7506 51.4362 86.0869 51.6669 86.3659 51.9567C86.5326 52.1645 86.6225 52.4219 86.6207 52.6865C86.6218 52.8563 86.586 53.0243 86.5155 53.1792C86.4451 53.3342 86.3416 53.4725 86.2122 53.5848C85.9289 53.8395 85.555 53.9745 85.1713 53.9605C85.0458 53.9611 84.9206 53.948 84.798 53.9216C84.648 53.8819 84.5012 53.8314 84.3588 53.7705C84.2755 53.7426 84.1872 53.7323 84.0996 53.7403C84.0387 53.7415 83.9799 53.7628 83.9327 53.8007C83.8663 53.8477 83.8146 53.9121 83.7834 53.9864H83.6736V52.4145H83.7834C83.843 52.7986 84.028 53.1533 84.3105 53.425C84.5318 53.6438 84.8311 53.7693 85.145 53.7748C85.3456 53.7854 85.5424 53.7188 85.694 53.5891C85.7572 53.5354 85.8082 53.4691 85.8438 53.3947C85.8793 53.3203 85.8986 53.2395 85.9004 53.1573C85.9103 53.0616 85.8951 52.9649 85.8565 52.8766C85.7947 52.7737 85.7126 52.6841 85.6149 52.6131C85.4365 52.4885 85.2468 52.38 85.0483 52.2892C84.7601 52.1564 84.4852 51.9973 84.227 51.8142C84.0704 51.698 83.9402 51.5509 83.8449 51.3823C83.7527 51.2202 83.7057 51.0369 83.7087 50.8511C83.704 50.6896 83.7344 50.529 83.798 50.38C83.8617 50.231 83.957 50.0971 84.0777 49.9874C84.2006 49.8713 84.3459 49.7805 84.5051 49.7204C84.6643 49.6604 84.834 49.6322 85.0044 49.6376C85.1377 49.6364 85.2706 49.6524 85.3997 49.6851C85.5211 49.7198 85.6388 49.7661 85.7511 49.8233C85.841 49.8729 85.9391 49.9065 86.0409 49.9226C86.0648 49.924 86.0886 49.9201 86.1107 49.9111C86.1327 49.9021 86.1524 49.8883 86.1683 49.8708C86.2152 49.8006 86.2453 49.7209 86.2561 49.6376L86.3264 49.629Z" fill="#1D1D1B"/>
</svg>
