<svg width="9" height="14" viewBox="0 0 9 14" fill="none" xmlns="http://www.w3.org/2000/svg">
<path d="M4.24385 0.747417C3.70153 0.747904 3.16521 0.866165 2.66885 1.0947C2.17248 1.32324 1.72687 1.65708 1.3602 2.0751C0.993532 2.49312 0.713794 2.98622 0.538702 3.52319C0.363611 4.06016 0.296967 4.6293 0.342997 5.19461C0.423014 6.1756 0.843115 6.90808 1.40073 7.67457C2.71102 9.50577 3.47367 11.7058 4.24884 13.8222C4.999 11.7451 5.74917 9.60517 7.01445 7.78967C7.51455 7.08074 7.95214 6.44244 8.10217 5.55561C8.20144 4.96605 8.17614 4.36091 8.02808 3.78266C7.88001 3.20441 7.61275 2.66707 7.24507 2.20837C6.87739 1.74968 6.41819 1.38073 5.89972 1.12744C5.38125 0.874152 4.81606 0.742656 4.24385 0.742188V0.747417ZM4.24385 6.06574C3.99657 6.06574 3.75483 5.98902 3.54922 5.8453C3.34362 5.70157 3.18338 5.49729 3.08875 5.25829C2.99412 5.01928 2.96936 4.75629 3.0176 4.50256C3.06584 4.24883 3.18492 4.01578 3.35977 3.83285C3.53463 3.64992 3.7574 3.52534 3.99993 3.47487C4.24246 3.4244 4.49384 3.4503 4.7223 3.5493C4.95075 3.6483 5.14603 3.81595 5.28341 4.03105C5.42079 4.24615 5.49411 4.49904 5.49411 4.75774C5.49411 5.10464 5.36239 5.43733 5.12792 5.68263C4.89345 5.92793 4.57544 6.06574 4.24385 6.06574Z" fill="#999999"/>
</svg>
