<svg width="12" height="11" viewBox="0 0 12 11" fill="none" xmlns="http://www.w3.org/2000/svg">
<path fill-rule="evenodd" clip-rule="evenodd" d="M8.43387 0.17118C8.14193 0.0155533 7.75651 0.0901056 7.57301 0.337697L6.28131 2.08055L4.98962 0.337646C4.80612 0.0900506 4.42071 0.0154914 4.12876 0.171113C3.83682 0.326735 3.74891 0.653607 3.9324 0.901202L4.93713 2.25691H2.03383C1.36362 2.25691 0.820312 2.74564 0.820312 3.34852V4.44014C0.820312 4.84419 1.06435 5.19697 1.42707 5.38571V5.53175V9.3524C1.42707 10.2567 2.24204 10.9898 3.24735 10.9898H9.31495C10.3203 10.9898 11.1352 10.2567 11.1352 9.3524V5.53175V5.38571C11.498 5.19697 11.742 4.84419 11.742 4.44014V3.34852C11.742 2.74564 11.1987 2.25691 10.5285 2.25691H7.62549L8.63021 0.901272C8.81371 0.65368 8.72581 0.326807 8.43387 0.17118ZM2.03383 4.44014H2.64059H3.24735H5.67439V3.34852H3.24735H2.03383V4.44014ZM6.88791 3.34852V4.44014H9.31495H9.92171H10.5285V3.34852H9.31495H6.88791ZM5.67439 5.53175H3.85411H2.64059V6.62336V9.3524C2.64059 9.65384 2.91225 9.8982 3.24735 9.8982H5.67439V5.53175ZM6.88791 9.8982V5.53175H8.70819H9.92171V6.62336V9.3524C9.92171 9.65384 9.65005 9.8982 9.31495 9.8982H6.88791Z" fill="black"/>
</svg>
