<svg width="14" height="18" viewBox="0 0 14 18" fill="none" xmlns="http://www.w3.org/2000/svg">
<path d="M3.5603 7.13044V4.46042C3.5603 3.51624 3.93537 2.61073 4.60301 1.9431C5.27064 1.27546 6.17615 0.900391 7.12033 0.900391C8.06451 0.900391 8.97002 1.27546 9.63765 1.9431C10.3053 2.61073 10.6804 3.51624 10.6804 4.46042V7.13044" stroke="black" stroke-width="0.712005" stroke-linecap="round"/>
<path d="M0.890137 7.13086H13.3502V15.1409C13.3502 15.613 13.1627 16.0658 12.8289 16.3996C12.4951 16.7334 12.0423 16.9209 11.5702 16.9209H2.67015C2.19806 16.9209 1.74528 16.7334 1.41146 16.3996C1.07764 16.0658 0.890137 15.613 0.890137 15.1409V7.13086Z" stroke="black" stroke-width="0.712005" stroke-linejoin="round"/>
<path d="M9.34429 13.3507C10.0816 13.3507 10.6793 12.753 10.6793 12.0157C10.6793 11.2784 10.0816 10.6807 9.34429 10.6807C8.60698 10.6807 8.00928 11.2784 8.00928 12.0157C8.00928 12.753 8.60698 13.3507 9.34429 13.3507Z" stroke="black" stroke-width="0.712005" stroke-miterlimit="10"/>
</svg>
